<svg width="14" height="14" viewBox="0 0 14 14" fill="none" xmlns="http://www.w3.org/2000/svg">
    <path d="M13.0194 3.73001C13.1722 3.23701 13.2212 2.71768 13.1634 2.20479C13.1055 1.6919 12.942 1.19656 12.6831 0.750008C12.6392 0.673982 12.5761 0.610853 12.5001 0.566967C12.424 0.523082 12.3378 0.499988 12.25 0.500008C11.6676 0.498789 11.093 0.633798 10.5721 0.894248C10.0512 1.1547 9.59845 1.53337 9.25 2.00001H7.75C7.40155 1.53337 6.94878 1.1547 6.42788 0.894248C5.90698 0.633798 5.33238 0.498789 4.75 0.500008C4.66221 0.499988 4.57597 0.523082 4.49994 0.566967C4.42391 0.610853 4.36077 0.673982 4.31687 0.750008C4.05803 1.19656 3.89452 1.6919 3.83664 2.20479C3.77877 2.71768 3.82779 3.23701 3.98062 3.73001C3.6717 4.26921 3.50623 4.87862 3.5 5.50001V6.00001C3.50105 6.84601 3.80817 7.66306 4.36464 8.30029C4.92111 8.93752 5.68935 9.35189 6.5275 9.46688C6.18538 9.90467 5.99968 10.4444 6 11V11.5H4.5C4.10218 11.5 3.72064 11.342 3.43934 11.0607C3.15804 10.7794 3 10.3978 3 10C3 9.6717 2.93534 9.34661 2.8097 9.0433C2.68406 8.73999 2.49991 8.46439 2.26777 8.23224C2.03562 8.00009 1.76002 7.81595 1.45671 7.69031C1.15339 7.56467 0.828305 7.50001 0.5 7.50001C0.367392 7.50001 0.240215 7.55269 0.146447 7.64645C0.0526784 7.74022 0 7.8674 0 8.00001C0 8.13262 0.0526784 8.25979 0.146447 8.35356C0.240215 8.44733 0.367392 8.50001 0.5 8.50001C0.897825 8.50001 1.27936 8.65804 1.56066 8.93935C1.84196 9.22065 2 9.60218 2 10C2 10.663 2.26339 11.2989 2.73223 11.7678C3.20107 12.2366 3.83696 12.5 4.5 12.5H6V13.5C6 13.6326 6.05268 13.7598 6.14645 13.8536C6.24021 13.9473 6.36739 14 6.5 14C6.63261 14 6.75979 13.9473 6.85355 13.8536C6.94732 13.7598 7 13.6326 7 13.5V11C7 10.6022 7.15804 10.2207 7.43934 9.93935C7.72064 9.65804 8.10218 9.50001 8.5 9.50001C8.89782 9.50001 9.27936 9.65804 9.56066 9.93935C9.84196 10.2207 10 10.6022 10 11V13.5C10 13.6326 10.0527 13.7598 10.1464 13.8536C10.2402 13.9473 10.3674 14 10.5 14C10.6326 14 10.7598 13.9473 10.8536 13.8536C10.9473 13.7598 11 13.6326 11 13.5V11C11.0003 10.4444 10.8146 9.90467 10.4725 9.46688C11.3107 9.35189 12.0789 8.93752 12.6354 8.30029C13.1918 7.66306 13.4989 6.84601 13.5 6.00001V5.50001C13.4938 4.87862 13.3283 4.26921 13.0194 3.73001ZM12.5 6.00001C12.5 6.66305 12.2366 7.29893 11.7678 7.76778C11.2989 8.23662 10.663 8.50001 10 8.50001H7C6.33696 8.50001 5.70107 8.23662 5.23223 7.76778C4.76339 7.29893 4.5 6.66305 4.5 6.00001V5.50001C4.50613 5.00002 4.65582 4.51233 4.93125 4.09501C4.98259 4.02733 5.01585 3.94769 5.02788 3.8636C5.03991 3.77951 5.03031 3.69374 5 3.61438C4.86976 3.27851 4.80709 2.92023 4.81556 2.56009C4.82403 2.19995 4.90349 1.84501 5.04938 1.51563C5.45857 1.55965 5.85262 1.69521 6.2023 1.91224C6.55198 2.12928 6.84832 2.42223 7.06938 2.76938C7.11442 2.83982 7.17641 2.89784 7.24968 2.93813C7.32294 2.97842 7.40514 2.9997 7.48875 3.00001H9.51062C9.59455 3.00001 9.67713 2.97889 9.75075 2.93858C9.82437 2.89828 9.88666 2.84009 9.93188 2.76938C10.1529 2.4222 10.4492 2.12922 10.7989 1.91218C11.1486 1.69514 11.5427 1.55961 11.9519 1.51563C12.0976 1.8451 12.1768 2.20007 12.1851 2.56021C12.1933 2.92036 12.1304 3.27859 12 3.61438C11.9698 3.69298 11.9597 3.77788 11.9706 3.86138C11.9815 3.94487 12.0131 4.02432 12.0625 4.09251C12.3407 4.50984 12.4926 4.99853 12.5 5.50001V6.00001Z" fill="#71717A"/>
</svg>
