<svg width="28" height="28" viewBox="0 0 28 28" fill="none" xmlns="http://www.w3.org/2000/svg">
<path d="M14 8.00006C12.8133 8.00006 11.6533 8.35195 10.6666 9.01124C9.67988 9.67053 8.91085 10.6076 8.45672 11.704C8.0026 12.8003 7.88378 14.0067 8.11529 15.1706C8.3468 16.3345 8.91824 17.4036 9.75736 18.2427C10.5965 19.0818 11.6656 19.6533 12.8295 19.8848C13.9933 20.1163 15.1997 19.9975 16.2961 19.5433C17.3925 19.0892 18.3295 18.3202 18.9888 17.3335C19.6481 16.3468 20 15.1867 20 14.0001C19.9983 12.4093 19.3657 10.8841 18.2408 9.75924C17.116 8.63438 15.5908 8.00171 14 8.00006ZM14 18.0001C13.2089 18.0001 12.4355 17.7655 11.7777 17.3259C11.1199 16.8864 10.6072 16.2617 10.3045 15.5308C10.0017 14.7999 9.92252 13.9956 10.0769 13.2197C10.2312 12.4438 10.6122 11.731 11.1716 11.1716C11.731 10.6122 12.4437 10.2313 13.2196 10.0769C13.9956 9.92257 14.7998 10.0018 15.5307 10.3045C16.2616 10.6073 16.8864 11.12 17.3259 11.7778C17.7654 12.4356 18 13.2089 18 14.0001C18 15.0609 17.5786 16.0783 16.8284 16.8285C16.0783 17.5786 15.0609 18.0001 14 18.0001ZM25 14.2701C25.005 14.0901 25.005 13.9101 25 13.7301L26.865 11.4001C26.9628 11.2777 27.0305 11.1341 27.0626 10.9808C27.0947 10.8276 27.0904 10.6689 27.05 10.5176C26.7443 9.36831 26.2869 8.26487 25.69 7.23631C25.6118 7.1017 25.5033 6.9872 25.3731 6.90192C25.2429 6.81664 25.0946 6.76292 24.94 6.74506L21.975 6.41506C21.8517 6.28506 21.7267 6.16006 21.6 6.04006L21.25 3.06756C21.232 2.91282 21.1781 2.76443 21.0926 2.63422C21.0071 2.50401 20.8923 2.39557 20.7575 2.31756C19.7285 1.72174 18.6252 1.26485 17.4762 0.958807C17.3248 0.918553 17.1661 0.914436 17.0128 0.946787C16.8595 0.979139 16.716 1.04705 16.5938 1.14506L14.27 3.00006C14.09 3.00006 13.91 3.00006 13.73 3.00006L11.4 1.13881C11.2777 1.04102 11.1341 0.973329 10.9808 0.941196C10.8275 0.909063 10.6688 0.913382 10.5175 0.953807C9.36844 1.26009 8.26507 1.71741 7.23625 2.31381C7.10165 2.39196 6.98715 2.50046 6.90186 2.63067C6.81658 2.76087 6.76287 2.90919 6.745 3.06381L6.415 6.03381C6.285 6.15797 6.16 6.28297 6.04 6.40881L3.0675 6.75006C2.91277 6.76806 2.76438 6.82196 2.63416 6.90747C2.50395 6.99298 2.39551 7.10772 2.3175 7.24256C1.72168 8.27151 1.26479 9.37486 0.95875 10.5238C0.918496 10.6752 0.914379 10.834 0.94673 10.9872C0.979082 11.1405 1.047 11.2841 1.145 11.4063L3 13.7301C3 13.9101 3 14.0901 3 14.2701L1.13875 16.6001C1.04096 16.7224 0.973272 16.866 0.941139 17.0193C0.909005 17.1726 0.913325 17.3312 0.95375 17.4826C1.25949 18.6318 1.71684 19.7352 2.31375 20.7638C2.39191 20.8984 2.50041 21.0129 2.63061 21.0982C2.76082 21.1835 2.90913 21.2372 3.06375 21.2551L6.02875 21.5851C6.15292 21.7151 6.27792 21.8401 6.40375 21.9601L6.75 24.9326C6.768 25.0873 6.8219 25.2357 6.90741 25.3659C6.99292 25.4961 7.10766 25.6045 7.2425 25.6826C8.27146 26.2784 9.3748 26.7353 10.5238 27.0413C10.6752 27.0816 10.8339 27.0857 10.9872 27.0533C11.1405 27.021 11.284 26.9531 11.4062 26.8551L13.73 25.0001C13.91 25.0051 14.09 25.0051 14.27 25.0001L16.6 26.8651C16.7223 26.9628 16.8659 27.0305 17.0192 27.0627C17.1725 27.0948 17.3312 27.0905 17.4825 27.0501C18.6317 26.7443 19.7352 26.287 20.7638 25.6901C20.8984 25.6119 21.0129 25.5034 21.0981 25.3732C21.1834 25.243 21.2371 25.0947 21.255 24.9401L21.585 21.9751C21.715 21.8517 21.84 21.7267 21.96 21.6001L24.9325 21.2501C25.0872 21.2321 25.2356 21.1782 25.3658 21.0926C25.496 21.0071 25.6045 20.8924 25.6825 20.7576C26.2783 19.7286 26.7352 18.6253 27.0413 17.4763C27.0815 17.3249 27.0856 17.1662 27.0533 17.0129C27.0209 16.8596 26.953 16.716 26.855 16.5938L25 14.2701ZM22.9875 13.4576C23.0087 13.8189 23.0087 14.1812 22.9875 14.5426C22.9726 14.79 23.0501 15.0341 23.205 15.2276L24.9788 17.4438C24.7752 18.0906 24.5146 18.7181 24.2 19.3188L21.375 19.6388C21.129 19.6661 20.9018 19.7837 20.7375 19.9688C20.4969 20.2394 20.2406 20.4957 19.97 20.7363C19.7849 20.9006 19.6673 21.1278 19.64 21.3738L19.3263 24.1963C18.7256 24.5111 18.0981 24.7717 17.4513 24.9751L15.2337 23.2013C15.0563 23.0595 14.8359 22.9824 14.6087 22.9826H14.5487C14.1874 23.0038 13.8251 23.0038 13.4637 22.9826C13.2164 22.9677 12.9722 23.0452 12.7788 23.2001L10.5562 24.9751C9.90942 24.7715 9.28195 24.5109 8.68125 24.1963L8.36125 21.3751C8.33394 21.129 8.21636 20.9019 8.03125 20.7376C7.76064 20.4969 7.50436 20.2407 7.26375 19.9701C7.09942 19.7849 6.87227 19.6674 6.62625 19.6401L3.80375 19.3251C3.48899 18.7244 3.22838 18.0969 3.025 17.4501L4.79875 15.2326C4.95363 15.0391 5.03114 14.795 5.01625 14.5476C4.995 14.1862 4.995 13.8239 5.01625 13.4626C5.03114 13.2152 4.95363 12.971 4.79875 12.7776L3.025 10.5563C3.22853 9.90947 3.48914 9.28201 3.80375 8.68131L6.625 8.36131C6.87102 8.334 7.09817 8.21642 7.2625 8.03131C7.50311 7.76069 7.75939 7.50442 8.03 7.26381C8.21585 7.09937 8.33391 6.8717 8.36125 6.62506L8.675 3.80381C9.27563 3.48905 9.90311 3.22843 10.55 3.02506L12.7675 4.79881C12.961 4.95369 13.2051 5.0312 13.4525 5.01631C13.8139 4.99506 14.1761 4.99506 14.5375 5.01631C14.7849 5.0312 15.029 4.95369 15.2225 4.79881L17.4438 3.02506C18.0906 3.22859 18.7181 3.4892 19.3188 3.80381L19.6388 6.62506C19.6661 6.87108 19.7836 7.09822 19.9688 7.26256C20.2394 7.50317 20.4956 7.75944 20.7362 8.03006C20.9006 8.21517 21.1277 8.33275 21.3738 8.36006L24.1963 8.67381C24.511 9.27444 24.7716 9.90192 24.975 10.5488L23.2013 12.7663C23.0449 12.9614 22.9673 13.2081 22.9837 13.4576H22.9875Z" fill="#A1A1AA"/>
</svg>
